# xmcd
#
# Track frame offsets: 
#        150
#        19382
#        37129
#        51397
#        69477
#        87291
#        105591
#        130081
#        150963
#        170067
#        189907
#        211776
#        242013
#        261324
#        285374
#        304664
#        320005
#        341014
#
# Disc length: 4783 seconds
#
# Revision: 0
# Processed by: cddbd v1.5.2PL0 Copyright (c) Steve Scherf et al.
# Submitted via: ExactAudioCopy v0.99pb5
#
DISCID=fe12ad12
DTITLE=Va  - Hard and Heavy Time Life Box Set - Disc 4
DYEAR=1900
DGENRE=
TTITLE0=Scorpions - Rock You Like A Hurricane
TTITLE1=Bachman-Turner Overdrive - You Ain't Seen Nothing Yet
TTITLE2=Cheap Trick - I Want You To Want Me
TTITLE3=Boston - We're Ready
TTITLE4=Nelson - (Can't Live Without Your Love) Love And Affection
TTITLE5=Kiss - Rock And Roll All Nite
TTITLE6=Tesla - Love Song
TTITLE7=38 Special - Caught Up In You
TTITLE8=Sammy Hagar - I Can't Drive 55
TTITLE9=Night Ranger - Don't Tell Me You Love Me
TTITLE10=Cinderella - Nobody's Fool
TTITLE11=Whitesnake - Still Of The Night
TTITLE12=L.A. Guns - Never Enough
TTITLE13=Anthrax - Among The Living
TTITLE14=Ugly Kid Joe - Everything About You
TTITLE15=Rush - Fly By Night
TTITLE16=Giuffria - Call To The Heart
TTITLE17=Nazareth - Bad, Bad Boy
EXTD=
EXTT0=
EXTT1=
EXTT2=
EXTT3=
EXTT4=
EXTT5=
EXTT6=
EXTT7=
EXTT8=
EXTT9=
EXTT10=
EXTT11=
EXTT12=
EXTT13=
EXTT14=
EXTT15=
EXTT16=
EXTT17=
PLAYORDER=
